<?xml version="1.0" encoding="UTF-8" standalone="no"?>
<!-- Created with Inkscape (http://www.inkscape.org/) -->

<svg
   xmlns:dc="http://purl.org/dc/elements/1.1/"
   xmlns:cc="http://creativecommons.org/ns#"
   xmlns:rdf="http://www.w3.org/1999/02/22-rdf-syntax-ns#"
   xmlns:svg="http://www.w3.org/2000/svg"
   xmlns="http://www.w3.org/2000/svg"
   xmlns:sodipodi="http://sodipodi.sourceforge.net/DTD/sodipodi-0.dtd"
   xmlns:inkscape="http://www.inkscape.org/namespaces/inkscape"
   width="500pt"
   height="70pt"
   viewBox="0 0 624.99997 87.5"
   id="svg2"
   version="1.1"
   inkscape:version="0.91 r13725"
   sodipodi:docname="cap-logo-header.svg"
   inkscape:export-filename="/Users/asui085/Downloads/capwebsite/cap-logo-header.png"
   inkscape:export-xdpi="96.82"
   inkscape:export-ydpi="96.82">
  <defs
     id="defs4" />
  <sodipodi:namedview
     id="base"
     pagecolor="#ffffff"
     bordercolor="#666666"
     borderopacity="1.0"
     inkscape:pageopacity="0"
     inkscape:pageshadow="2"
     inkscape:zoom="0.70710678"
     inkscape:cx="352.83139"
     inkscape:cy="-23.676854"
     inkscape:document-units="px"
     inkscape:current-layer="layer1"
     showgrid="false"
     fit-margin-top="2"
     fit-margin-left="2"
     fit-margin-right="2"
     fit-margin-bottom="2"
     inkscape:window-width="1440"
     inkscape:window-height="855"
     inkscape:window-x="0"
     inkscape:window-y="1"
     inkscape:window-maximized="1"
     units="pt" />
  <metadata
     id="metadata7">
    <rdf:RDF>
      <cc:Work
         rdf:about="">
        <dc:format>image/svg+xml</dc:format>
        <dc:type
           rdf:resource="http://purl.org/dc/dcmitype/StillImage" />
        <dc:title></dc:title>
      </cc:Work>
    </rdf:RDF>
  </metadata>
  <g
     inkscape:label="Layer 1"
     inkscape:groupmode="layer"
     id="layer1"
     transform="translate(-48.096789,-439.55763)">
    <g
       inkscape:label="caplogo"
       id="layer1-6"
       transform="matrix(0.80834136,0,0,0.80834136,-446.70192,227.00087)"
       style="display:inline">
      <path
         inkscape:connector-curvature="0"
         id="path4259"
         d="m 640.17144,350.0307 c -4.34178,-6.42774 -5.15902,-9.54273 -5.24565,-19.99453 -0.0974,-11.75734 -0.26622,-12.23033 -3.35118,-9.3957 -2.9558,2.71591 -3.51141,2.72706 -6.16559,0.12376 -2.65419,-2.60327 -2.15131,-3.58825 5.58028,-10.93011 4.67353,-4.43795 10.21371,-10.97257 12.3115,-14.52138 4.28605,-7.25071 12.34735,-16.61449 14.31858,-16.63207 3.6839,-0.0329 3.13995,6.38421 -0.96061,11.33221 -4.5181,5.45182 -5.97257,10.73544 -2.94779,10.70847 2.17259,-0.0194 11.22269,-8.71599 11.20568,-10.76799 -0.008,-0.92067 1.70621,-3.89469 3.80855,-6.60892 3.05909,-3.94947 4.34721,-4.50797 6.4504,-2.79674 2.26034,1.83913 2.22125,2.76924 -0.27953,6.64901 -3.49648,5.42448 -1.96881,7.65975 3.05392,4.46847 2.9739,-1.88953 4.14183,-1.82696 6.3514,0.34024 3.85828,3.78426 3.41375,8.41264 -0.81158,8.45033 -1.96174,0.0175 -4.14458,0.98254 -4.85076,2.14453 -0.90357,1.48686 0.15519,1.73869 3.57413,0.8501 3.53691,-0.91927 4.86389,-0.55849 4.87952,1.32665 0.0118,1.42409 -1.33299,3.12167 -2.98843,3.77239 -5.60375,2.20272 -1.27161,2.947 4.70539,0.8084 7.53652,-2.6966 12.13873,0.42371 6.64539,4.50559 -3.32522,2.47084 -3.30559,2.59706 0.58967,3.79283 4.56813,1.40232 5.10967,3.31829 1.74053,6.15797 -1.67231,1.40952 -3.58562,0.9919 -6.9041,-1.50691 -8.30099,-6.25066 -14.6925,-3.38962 -14.62236,6.54543 0.0555,7.80757 -5.48402,16.20078 -15.15668,22.96624 -11.09891,7.76301 -14.68599,7.45654 -20.93068,-1.78831 z m 20.99964,-7.148 c 6.7198,-4.1694 9.42782,-11.57248 5.60481,-15.32218 -1.38582,-1.35925 -3.65794,-2.08153 -5.04912,-1.6051 -1.76566,0.60471 -2.05639,0.0981 -0.96281,-1.67786 1.68837,-2.74187 3.06824,-17.53528 1.48577,-15.92881 -1.17581,1.19367 -9.71894,32.76518 -9.72425,35.93638 -0.006,3.14982 1.7739,2.8612 8.6456,-1.40243 z m -13.51369,-7.48953 c 0.63861,-4.20843 2.71284,-9.86577 4.60941,-12.57189 3.59384,-5.12787 6.67949,-14.81132 4.71408,-14.79379 -0.6231,0.006 -2.4502,3.3766 -4.06021,7.49121 -1.72154,4.39961 -3.61005,6.8115 -4.5848,5.85544 -0.97476,-0.95605 -0.55981,-3.78103 1.00734,-6.85829 1.95928,-3.84719 2.15125,-6.17109 0.72506,-8.77722 -1.06688,-1.94956 -1.5832,-5.4934 -1.14738,-7.87526 0.4358,-2.38184 0.0885,-3.88801 -0.77177,-3.34702 -0.86028,0.54096 -1.55481,2.10832 -1.54341,3.483 0.0114,1.37469 -3.20667,5.30465 -7.15124,8.73328 l -7.17197,6.23385 5.54638,2.39157 c 6.70423,2.89083 8.83366,7.25909 4.68996,9.62092 -3.53456,2.01464 -3.66289,3.71249 -0.98515,13.03278 2.42777,8.45022 4.58398,7.52818 6.1237,-2.61858 z m 29.59334,-18.5602 c 2.12247,-2.38096 2.3842,-3.50608 0.81235,-3.49206 -1.30641,0.0117 -1.86712,-1.1845 -1.2841,-2.73928 0.74942,-1.99852 -0.22913,-2.74867 -3.54694,-2.71909 -3.27532,0.0292 -5.10272,1.44301 -6.40841,4.95795 -1.00458,2.70438 -1.42133,5.94491 -0.92613,7.20119 1.18011,2.99364 7.38836,1.23904 11.35323,-3.20871 z M 665.04724,301.4952 c 1.92262,-2.35224 1.80672,-2.61954 -0.70739,-1.6313 -1.65372,0.65004 -3.00066,1.91877 -2.9932,2.8194 0.0195,2.35804 1.08055,2.01739 3.70059,-1.1881 z"
         style="fill:#ecbfbf;fill-opacity:1" />
      <path
         sodipodi:nodetypes="csssssscsssssssssssssssssssssssssssssscssssssssssssssscccscc"
         inkscape:connector-curvature="0"
         id="path4257"
         d="m 640.47591,350.4388 c -4.51449,-4.04681 -7.1423,-20.0141 -4.58791,-26.89057 2.18499,-5.88209 -1.61014,-8.91522 -3.741,-3.98108 -2.18021,5.04841 -5.5274,1.56786 -5.5274,1.56786 -4.77046,-2.36015 -1.81626,-5.38922 6.14669,-12.14887 4.43626,-3.76591 10.21681,-10.87081 12.84567,-15.78869 4.60367,-8.61222 10.92693,-14.21832 13.35313,-11.83865 0.64097,0.62868 0.1831,2.55637 -1.01741,4.28375 -4.83225,6.95283 -7.75034,13.47616 -6.74256,15.07289 0.58606,0.92857 4.93724,-0.40963 9.66933,-2.97378 10.38163,-5.62544 24.74152,-5.91671 25.81438,-0.52359 0.53167,2.67265 -0.75537,3.21592 -7.7668,3.27845 -4.62223,0.0413 -8.39723,0.90012 -8.38886,1.90864 0.008,1.00853 1.66906,1.81893 3.69045,1.80091 2.02139,-0.0181 3.68283,0.88064 3.69209,1.99709 0.009,1.13029 -1.32677,1.52896 -3.01498,0.89958 -4.60896,-1.71828 -9.46533,5.84137 -9.40809,12.74817 0.0275,3.31401 3.41549,8.22142 -3.78441,5.69609 -1.83754,-0.64451 2.0333,-12.77815 4.2225,-18.05779 2.39414,-5.77403 -2.17941,-3.37376 -5.33192,2.79828 -3.01823,5.90911 -3.04821,5.92041 -2.30105,0.86474 1.11596,-7.55121 -7.77927,-5.82551 -6.34236,4.33989 1.19443,8.44984 -4.40201,7.94946 -3.63008,4.00845 0.59368,-3.0311 2.28253,-8.89474 2.16197,-11.41516 -0.61602,-12.87886 -0.87734,-14.66272 -2.14618,-14.65141 -0.75608,0.007 -1.85059,1.97325 -2.43226,4.37001 -0.58168,2.39676 -4.0054,6.64202 -7.60825,9.4339 0,0 -7.53098,4.99711 -4.90176,6.04385 l 6.91933,2.75465 c 7.73312,3.07864 6.57367,8.58543 1.91414,8.62699 -3.50039,0.0312 -3.4964,9.73957 0.008,17.4212 2.75614,6.04294 3.16695,5.52867 6.5875,-8.24638 1.81706,-7.31762 8.9397,-19.63212 8.97382,-15.51506 0.008,0.89562 -1.58417,7.38387 -3.53689,14.41833 -1.9527,7.0345 -2.87454,13.45285 -2.04854,14.26301 2.13617,2.09519 13.42014,-6.09447 16.70202,-12.12196 2.45195,-4.50321 2.45091,-5.26739 -0.009,-6.81021 -2.31234,-1.45011 -1.86468,-2.49808 2.70416,-6.33049 3.01138,-2.52599 6.50865,-4.63159 7.77172,-4.67913 2.70846,-0.10191 3.06873,-3.18297 0.47282,-4.04344 -3.19011,-1.05742 0.11735,-8.8645 3.76923,-8.89707 1.90351,-0.0169 3.46778,0.79429 3.47614,1.80282 0.008,1.00852 -1.1764,1.84431 -2.63279,1.8573 -1.45639,0.013 -3.22026,0.96525 -3.91966,2.11616 -0.91883,1.51192 1.0924,1.71722 7.24872,0.73988 5.58728,-0.88699 8.52596,-0.68272 8.53653,0.59341 0.009,1.07032 -1.22427,1.95709 -2.74031,1.97062 -4.01868,0.0359 -3.34552,3.25526 0.95681,4.57601 2.0267,0.62216 3.6947,2.31332 3.70668,3.75816 0.029,3.49663 -1.15903,3.33812 -8.57022,-1.14341 -5.66691,-3.42676 -6.66482,-3.52753 -10.38471,-1.0488 -2.71267,1.80759 -4.24358,4.85132 -4.49156,8.93005 -0.64124,10.54634 -3.88455,15.75334 -14.11461,22.66029 -5.42594,3.66341 -7.34828,6.67959 -11.56788,6.67592 -5.59728,-0.005 -4.89151,-2.19059 -8.65329,-7.17181 z m 24.49175,-47.91237 c 1.47899,-0.9515 2.20723,-2.20261 1.61832,-2.78025 -1.45958,-1.43157 -7.09381,0.91983 -7.07696,2.95351 0.0174,2.08999 2.0405,2.02578 5.45864,-0.17321 z"
         style="fill:#d40000;fill-opacity:1" />
      <g
         id="g4235"
         transform="translate(15.152288,91.418805)" />
      <g
         id="g4201"
         transform="translate(111.11678,-34.850263)" />
    </g>
    <g
       id="layer2"
       inkscape:label="text"
       transform="matrix(1.0865641,0,0,1.0865641,-151.22024,584.98851)"
       style="display:inline">
      <text
         xml:space="preserve"
         style="font-style:normal;font-variant:normal;font-weight:normal;font-stretch:normal;font-size:45.13676834px;line-height:125%;font-family:'Arial Rounded MT Bold';-inkscape-font-specification:'Arial Rounded MT Bold, Normal';text-align:start;letter-spacing:0px;word-spacing:0px;writing-mode:lr-tb;text-anchor:start;fill:#000000;fill-opacity:1;stroke:none;stroke-width:1px;stroke-linecap:butt;stroke-linejoin:miter;stroke-opacity:1"
         x="249.08038"
         y="-73.828392"
         id="text4143"
         sodipodi:linespacing="125%"><tspan
           sodipodi:role="line"
           id="tspan4145"
           x="249.08038"
           y="-73.828392"
           style="font-style:normal;font-variant:normal;font-weight:300;font-stretch:normal;font-size:45.13676834px;line-height:125%;font-family:'Bookman Old Style';-inkscape-font-specification:'Bookman Old Style Light';text-align:start;writing-mode:lr-tb;text-anchor:start;fill:#4d4d4d">Cardiac Atlas Project</tspan></text>
    </g>
    <text
       xml:space="preserve"
       style="font-style:normal;font-weight:normal;font-size:22.5px;line-height:125%;font-family:sans-serif;letter-spacing:0px;word-spacing:0px;fill:#000000;fill-opacity:1;stroke:none;stroke-width:1px;stroke-linecap:butt;stroke-linejoin:miter;stroke-opacity:1"
       x="160.61424"
       y="672.54486"
       id="text3460"
       sodipodi:linespacing="125%"><tspan
         sodipodi:role="line"
         id="tspan3462"
         x="160.61424"
         y="672.54486"></tspan></text>
  </g>
</svg>
